<svg
	version="1.1"
	xmlns="http://www.w3.org/2000/svg"
	xmlns:xlink="http://www.w3.org/1999/xlink"
	x="0px"
	y="0px"
	viewBox="0 0 563.7 85"
	xml:space="preserve"
>
  <defs>
    <style type="text/css"><![CDATA[
      .logo-rect--red {
        fill: #C70000;
      }

      .logo-heading-text--gray {
        fill: #7C7C7C;
      }
    ]]></style>
  </defs>

	<rect class="logo-rect" width="84" height="23"/>
	<rect class="logo-rect logo-rect--red" x="92" width="23" height="23"/>
	<rect class="logo-rect" x="46" y="31" width="69" height="23"/>
	<rect class="logo-rect" y="62" width="115" height="23"/>

	<!-- Freedom -->
	<path class="logo-heading-text" d="M156.7,5h-16.8v10.5h14.3v4.7h-14.3v14.6h-5.2V0.3h22V5z"/>
	<path class="logo-heading-text" d="M175.4,0.3c6.5,0,10.7,4.2,10.7,10.1c0,4.9-3,8.1-6.9,9.1l7.9,15.2H181l-7.3-14.5h-6.5v14.5H162V0.3H175.4z M167.2,5v10.8
		h7.7c3.5,0,5.9-2,5.9-5.4S178.5,5,175,5H167.2z"/>
	<path class="logo-heading-text" d="M214.8,5H198V15h14.3v4.7H198V30h16.8v4.7h-22V0.3h22V5z"/>
	<path class="logo-heading-text" d="M243,5h-16.8V15h14.3v4.7h-14.3V30H243v4.7h-22V0.3h22V5z"/>
	<path class="logo-heading-text" d="M261.3,0.3c4.3,0,7.4,1.4,9.8,4.4c2.5,3.1,2.6,7.4,2.6,12.9s-0.1,9.8-2.6,12.9c-2.4,3-5.5,4.4-9.8,4.4h-12.1V0.3H261.3z
		 M254.4,5V30h6.3c2.5,0,4.5-0.6,5.9-2.3c1.7-1.9,1.8-5.1,1.8-10.2c0-5.1-0.1-8.3-1.8-10.2c-1.4-1.7-3.4-2.3-5.9-2.3H254.4z"/>
	<path class="logo-heading-text" d="M300.5,3.5c3.4,3.4,3.5,6.8,3.5,14s-0.1,10.6-3.5,14c-2.2,2.2-5.1,3.5-8.9,3.5c-3.8,0-6.7-1.3-8.9-3.5
		c-3.4-3.4-3.5-6.8-3.5-14s0.1-10.6,3.5-14c2.2-2.2,5.1-3.5,8.9-3.5C295.4,0,298.3,1.3,300.5,3.5z M286.5,6.8c-1.7,1.8-2,3.9-2,10.7
		c0,6.8,0.3,8.9,2,10.7c1.3,1.4,3,2.1,5.1,2.1s3.8-0.8,5.1-2.1c1.7-1.8,2-3.9,2-10.7c0-6.8-0.3-9-2-10.7c-1.3-1.4-3-2.1-5.1-2.1
		S287.8,5.4,286.5,6.8z"/>
	<path class="logo-heading-text" d="M341.2,34.7h-5.2v-23L328,28.5h-3.9L316,11.7v23h-5.2V0.3h5.2l10.1,21.4l9.9-21.4h5.2V34.7z"/>

	<!-- Of The -->
	<path class="logo-heading-text logo-heading-text--gray" d="M379.9,3.5c3.4,3.4,3.5,6.8,3.5,14s-0.1,10.6-3.5,14c-2.2,2.2-5.1,3.5-8.9,3.5s-6.7-1.3-8.9-3.5
		c-3.4-3.4-3.5-6.8-3.5-14s0.1-10.6,3.5-14c2.2-2.2,5.1-3.5,8.9-3.5S377.7,1.3,379.9,3.5z M365.9,6.8c-1.7,1.8-2,3.9-2,10.7
		c0,6.8,0.3,8.9,2,10.7c1.3,1.4,3,2.1,5.1,2.1s3.8-0.8,5.1-2.1c1.7-1.8,2-3.9,2-10.7c0-6.8-0.3-9-2-10.7c-1.3-1.4-3-2.1-5.1-2.1
		S367.2,5.4,365.9,6.8z"/>
	<path class="logo-heading-text logo-heading-text--gray" d="M412.2,5h-16.8v10.5h14.3v4.7h-14.3v14.6h-5.2V0.3h22V5z"/>
	<path class="logo-heading-text logo-heading-text--gray" d="M449.3,5h-9.5v29.8h-5.2V5h-9.5V0.3h24.2V5z"/>
	<path class="logo-heading-text logo-heading-text--gray" d="M478.8,34.7h-5.2v-15h-14v15h-5.2V0.3h5.2V15h14V0.3h5.2V34.7z"/>
	<path class="logo-heading-text logo-heading-text--gray" d="M508.8,5h-16.8V15h14.3v4.7h-14.3V30h16.8v4.7h-22V0.3h22V5z"/>

	<!-- Press Foundation -->
	<path class="logo-heading-text" d="M147.7,50.1c6.7,0,11,4.5,11,10.5s-4.3,10.4-11,10.4h-7.8v13.6h-5.2V50.1H147.7z M139.9,54.8v11.5h7.5
		c3.7,0,6.1-2.1,6.1-5.7c0-3.7-2.4-5.8-6.1-5.8H139.9z"/>
	<path class="logo-heading-text" d="M177.5,50.1c6.5,0,10.7,4.2,10.7,10.1c0,4.9-3,8.1-6.9,9.1l7.9,15.2h-6.1L175.9,70h-6.5v14.5h-5.2V50.1H177.5z M169.4,54.8
		v10.8h7.7c3.5,0,5.9-2,5.9-5.4s-2.4-5.4-5.9-5.4H169.4z"/>
	<path class="logo-heading-text" d="M216.9,54.8h-16.8v10.1h14.3v4.7h-14.3v10.3h16.8v4.7h-22V50.1h22V54.8z"/>
	<path class="logo-heading-text" d="M243.4,53.7l-3.3,3.3c-2.1-2-4.6-2.7-7.6-2.7c-4.1,0-6.2,2.2-6.2,5.4c0,1.3,0.3,2.4,1.3,3.2c0.9,0.8,1.9,1.3,3.8,1.5
		l4.1,0.6c3.1,0.5,4.9,1.2,6.4,2.6c1.8,1.7,2.8,4.1,2.8,7.1c0,6.3-5.1,10.1-12.4,10.1c-5.2,0-8.9-1.2-12.2-4.5l3.4-3.4
		c2.5,2.5,5.4,3.3,8.9,3.3c4.5,0,7.1-1.9,7.1-5.3c0-1.5-0.4-2.8-1.4-3.6c-0.9-0.8-2-1.2-3.8-1.5l-4.1-0.6c-2.8-0.4-5-1.3-6.5-2.8
		c-1.7-1.5-2.6-3.8-2.6-6.6c0-6,4.4-10.1,11.5-10.1C237.3,49.8,240.5,51,243.4,53.7z"/>
	<path class="logo-heading-text" d="M270.8,53.7l-3.3,3.3c-2.1-2-4.6-2.7-7.6-2.7c-4.1,0-6.2,2.2-6.2,5.4c0,1.3,0.3,2.4,1.3,3.2c0.9,0.8,1.9,1.3,3.8,1.5
		l4.1,0.6c3.1,0.5,4.9,1.2,6.4,2.6c1.8,1.7,2.8,4.1,2.8,7.1c0,6.3-5.1,10.1-12.4,10.1c-5.2,0-8.9-1.2-12.2-4.5l3.4-3.4
		c2.5,2.5,5.4,3.3,8.9,3.3c4.5,0,7.1-1.9,7.1-5.3c0-1.5-0.4-2.8-1.4-3.6c-0.9-0.8-2-1.2-3.8-1.5l-4.1-0.6c-2.8-0.4-5-1.3-6.5-2.8
		c-1.7-1.5-2.6-3.8-2.6-6.6c0-6,4.4-10.1,11.5-10.1C264.7,49.8,267.8,51,270.8,53.7z"/>
	<path class="logo-heading-text" d="M310.7,54.8h-16.8v10.5h14.3V70h-14.3v14.6h-5.2V50.1h22V54.8z"/>
	<path class="logo-heading-text" d="M335.1,53.3c3.4,3.4,3.5,6.8,3.5,14s-0.1,10.6-3.5,14c-2.2,2.2-5.1,3.5-8.9,3.5c-3.8,0-6.7-1.3-8.9-3.5
		c-3.4-3.4-3.5-6.8-3.5-14s0.1-10.6,3.5-14c2.2-2.2,5.1-3.5,8.9-3.5C330,49.8,332.9,51.1,335.1,53.3z M321.1,56.6
		c-1.7,1.8-2,3.9-2,10.7c0,6.8,0.3,8.9,2,10.7c1.3,1.4,3,2.1,5.1,2.1c2.1,0,3.8-0.8,5.1-2.1c1.7-1.8,2-3.9,2-10.7c0-6.8-0.3-9-2-10.7
		c-1.3-1.4-3-2.1-5.1-2.1C324.1,54.5,322.4,55.2,321.1,56.6z"/>
	<path class="logo-heading-text" d="M369.6,72.9c0,7.1-5.4,11.9-12.4,11.9c-7,0-12.3-4.8-12.3-11.9V50.1h5.2v22.6c0,4.6,2.8,7.5,7.1,7.5s7.2-2.9,7.2-7.5V50.1
		h5.2V72.9z"/>
	<path class="logo-heading-text" d="M403.1,84.5h-4.8l-15.9-24.2v24.2h-5.2V50.1h4.8l15.9,24.2V50.1h5.2V84.5z"/>
	<path class="logo-heading-text" d="M423.2,50.1c4.3,0,7.4,1.4,9.8,4.4c2.5,3.1,2.6,7.4,2.6,12.9s-0.1,9.8-2.6,12.9c-2.4,3-5.5,4.4-9.8,4.4h-12.1V50.1H423.2z
		 M416.3,54.8v25.1h6.3c2.5,0,4.5-0.6,5.9-2.3c1.7-1.9,1.8-5.1,1.8-10.2c0-5.1-0.1-8.3-1.8-10.2c-1.4-1.7-3.4-2.3-5.9-2.3H416.3z"/>
	<path class="logo-heading-text" d="M467.3,84.5h-5.6l-2.4-6.9h-13.6l-2.4,6.9h-5.6l12.6-34.5h4.2L467.3,84.5z M447.2,73.2h10.6l-5.3-15.3L447.2,73.2z"/>
	<path class="logo-heading-text" d="M489.2,54.8h-9.5v29.8h-5.2V54.8H465v-4.7h24.2V54.8z"/>
	<path class="logo-heading-text" d="M499.4,84.5h-5.2V50.1h5.2V84.5z"/>
	<path class="logo-heading-text" d="M527.5,53.3c3.4,3.4,3.5,6.8,3.5,14s-0.1,10.6-3.5,14c-2.2,2.2-5.1,3.5-8.9,3.5c-3.8,0-6.7-1.3-8.9-3.5
		c-3.4-3.4-3.5-6.8-3.5-14s0.1-10.6,3.5-14c2.2-2.2,5.1-3.5,8.9-3.5C522.4,49.8,525.3,51.1,527.5,53.3z M513.4,56.6
		c-1.7,1.8-2,3.9-2,10.7c0,6.8,0.3,8.9,2,10.7c1.3,1.4,3,2.1,5.1,2.1c2.1,0,3.8-0.8,5.1-2.1c1.7-1.8,2-3.9,2-10.7c0-6.8-0.3-9-2-10.7
		c-1.3-1.4-3-2.1-5.1-2.1C516.5,54.5,514.8,55.2,513.4,56.6z"/>
	<path class="logo-heading-text" d="M563.7,84.5h-4.8L543,60.3v24.2h-5.2V50.1h4.8l15.9,24.2V50.1h5.2V84.5z"/>
</svg>
